<svg width="434" height="183" viewBox="0 0 434 183" fill="none" xmlns="http://www.w3.org/2000/svg">
<path d="M433.028 0.78125L418.551 164.188L353.479 182.365L288.586 164.213L274.125 0.78125H433.028Z" fill="#264DE4"/>
<path d="M406.16 153.783L418.531 14.144H353.578V168.471L406.16 153.783Z" fill="#2965F1"/>
<path d="M307.277 74.7593L309.06 94.8033H353.577V74.7593H307.277Z" fill="#EBEBEB"/>
<path d="M353.574 34.189H353.505H303.691L305.5 54.2335H353.574V34.189Z" fill="#EBEBEB"/>
<path d="M353.577 147.67V126.815L353.49 126.839L331.335 120.811L329.919 104.825H319.153H309.949L312.736 136.297L353.486 147.695L353.577 147.67Z" fill="#EBEBEB"/>
<path d="M378.004 94.8032L375.695 120.799L353.508 126.833V147.687L394.29 136.298L394.589 132.912L399.263 80.1416L399.749 74.7591L403.34 34.189H353.508V54.2335H381.539L379.729 74.7591H353.508V94.8032H378.004Z" fill="white"/>
<path d="M0 47.231H69.1544V76.37H28.9191V105.509H69.1544V134.648H0V47.231Z" fill="black"/>
<path d="M82.9844 47.231H152.139V72.5693H111.903V77.637H152.139V135.915H82.9844V109.31H123.22V104.242H82.9844V47.231Z" fill="black"/>
<path d="M165.969 47.231H235.123V72.5693H194.888V77.637H235.123V135.915H165.969V109.31H206.204V104.242H165.969V47.231Z" fill="black"/>
</svg>
